<svg width="127" height="47" viewBox="0 0 127 47" fill="none" xmlns="http://www.w3.org/2000/svg">
<path d="M0.0141602 26.083V22.165H12.5747V9.77734H16.9536V22.165H29.5142V26.083H16.9536V38.9316H12.5747V26.083H0.0141602ZM37.1196 12.4854V8.9707H38.8481C42.1515 8.9707 44.3986 8.47135 45.5894 7.47266C46.7801 6.47396 47.3755 5.03353 47.3755 3.15137V1.82617H51.2935V46.0762H46.5688V12.4854H37.1196ZM66.9653 12.082C67.8104 8.74023 69.3276 6.10905 71.5171 4.18848C73.745 2.2679 76.645 1.30762 80.2173 1.30762C83.9048 1.30762 86.9201 2.36393 89.2632 4.47656C91.6063 6.58919 92.7778 9.50846 92.7778 13.2344C92.7778 17.5365 90.55 21.8193 86.0942 26.083C80.9471 30.9997 77.7013 34.2454 76.3569 35.8203C74.6284 37.8561 73.4185 39.8151 72.7271 41.6973H92.7778V45.5H67.1958C67.1958 44.0404 67.5031 42.5231 68.1177 40.9482C68.7707 39.335 69.4621 37.9521 70.1919 36.7998C70.9217 35.6475 72.1317 34.1686 73.8218 32.3633C75.5119 30.5195 76.7987 29.1751 77.6821 28.3301C78.604 27.4466 80.1789 25.9678 82.4067 23.8936C86.1711 20.3213 88.0532 16.749 88.0532 13.1768C88.0532 10.6032 87.3234 8.60579 85.8638 7.18457C84.4425 5.76335 82.522 5.05273 80.1021 5.05273C77.7205 5.05273 75.7616 5.78255 74.2251 7.24219C72.6886 8.70182 71.6131 10.68 70.9985 13.1768L66.9653 12.082ZM101.824 45.5V0.731445H106.318V30.0586L119.8 14.502H125.677L114.615 26.8896L126.945 45.5H121.529L111.734 30.001L106.318 36.0508V45.5H101.824Z" fill="#333333"/>
</svg>
